<?xml version="1.0" encoding="utf-8"?>
<!-- Generator: Adobe Illustrator 26.0.2, SVG Export Plug-In . SVG Version: 6.00 Build 0)  -->
<svg version="1.1" id="Layer_1" xmlns="http://www.w3.org/2000/svg" xmlns:xlink="http://www.w3.org/1999/xlink" x="0px" y="0px"
	 viewBox="0 0 1080 1080" style="enable-background:new 0 0 1080 1080;" xml:space="preserve">
<style type="text/css">
	.st0{fill:none;stroke:#000000;stroke-width:4.05;stroke-linecap:round;stroke-linejoin:round;stroke-miterlimit:10;}
	.st1{fill:none;stroke:#000000;stroke-width:10.125;stroke-linecap:round;stroke-linejoin:round;stroke-miterlimit:10;}
	.st2{font-family:'ArialMT';}
	.st3{font-size:35.0688px;}
	.st4{fill:none;stroke:#000000;stroke-width:4;stroke-linecap:round;stroke-linejoin:round;stroke-miterlimit:10;}
	.st5{fill:none;stroke:#000000;stroke-width:4.05;stroke-linecap:round;stroke-linejoin:round;}
	.st6{font-size:34.425px;}
	.st7{letter-spacing:-1;}
	.st8{fill:none;stroke:#000000;stroke-width:3.8422;stroke-linecap:round;stroke-linejoin:round;stroke-miterlimit:10;}
	.st9{font-size:28.8802px;}
	.st10{font-family:'MyriadPro-Regular';}
	.st11{font-size:27px;}
	.st12{font-size:80.9997px;}
</style>
<line class="st0" x1="415.4" y1="649.2" x2="451.4" y2="649.2"/>
<line class="st0" x1="451.4" y1="649.2" x2="451.4" y2="577.2"/>
<line class="st1" x1="467.2" y1="561.4" x2="467.2" y2="664.9"/>
<line class="st0" x1="464.9" y1="577.2" x2="541.4" y2="577.2"/>
<line class="st0" x1="541.4" y1="577.2" x2="541.4" y2="523.2"/>
<line class="st0" x1="464.9" y1="613.2" x2="541.4" y2="613.2"/>
<line class="st0" x1="464.9" y1="649.2" x2="541.4" y2="649.2"/>
<line class="st0" x1="541.4" y1="824.7" x2="541.4" y2="649.2"/>
<line class="st0" x1="541.4" y1="613.2" x2="541.4" y2="649.2"/>
<line class="st0" x1="470.8" y1="612.9" x2="483.5" y2="600.4"/>
<line class="st0" x1="470.8" y1="612.9" x2="483.5" y2="625.5"/>
<text transform="matrix(0 -0.9816 1 0 587.6201 731.0205)" class="st2 st3">M</text>
<text transform="matrix(0 -0.9816 1 0 587.6201 704.7236)" class="st2 st3">O</text>
<text transform="matrix(0 -0.9816 1 0 587.6201 678.3911)" class="st2 st3">S</text>
<text transform="matrix(0 -0.9816 1 0 587.6201 656.1021)" class="st2 st3">F</text>
<text transform="matrix(0 -0.9816 1 0 587.6201 635.8872)" class="st2 st3">E</text>
<text transform="matrix(0 -0.9816 1 0 587.6201 613.5981)" class="st2 st3">T 2</text>
<line class="st0" x1="410.9" y1="374.7" x2="451.4" y2="374.7"/>
<line class="st0" x1="451.4" y1="374.7" x2="451.4" y2="451.2"/>
<line class="st1" x1="462.7" y1="462.4" x2="462.7" y2="363.4"/>
<line class="st0" x1="464.9" y1="451.2" x2="541.4" y2="451.2"/>
<line class="st0" x1="541.4" y1="451.2" x2="541.4" y2="523.2"/>
<line class="st0" x1="464.9" y1="410.7" x2="541.4" y2="410.7"/>
<line class="st0" x1="464.9" y1="374.7" x2="541.4" y2="374.7"/>
<line class="st0" x1="541.4" y1="199.2" x2="541.4" y2="374.7"/>
<line class="st4" x1="541.4" y1="451" x2="541.4" y2="410.7"/>
<line class="st0" x1="467.6" y1="410.7" x2="480.3" y2="423.2"/>
<line class="st0" x1="467.6" y1="410.7" x2="480.3" y2="398.1"/>
<text transform="matrix(0 -0.9816 1 0 587.0479 457.8296)" class="st2 st3">M</text>
<text transform="matrix(0 -0.9816 1 0 587.0479 431.5327)" class="st2 st3">O</text>
<text transform="matrix(0 -0.9816 1 0 587.0479 405.2007)" class="st2 st3">S</text>
<text transform="matrix(0 -0.9816 1 0 587.0479 382.9116)" class="st2 st3">F</text>
<text transform="matrix(0 -0.9816 1 0 587.0479 362.6968)" class="st2 st3">E</text>
<text transform="matrix(0 -0.9816 1 0 587.0479 340.4077)" class="st2 st3">T 1</text>
<path class="st0" d="M578.5,158.6c0,20.8-17.1,37.6-38.3,37.6l0,0c-21.1,0-38.3-16.8-38.3-37.6l0,0c0-20.8,17.1-37.6,38.3-37.6l0,0
	C561.3,121,578.5,137.9,578.5,158.6L578.5,158.6z"/>
<path class="st0" d="M501.9,158.6c0,20.8,17.1,37.6,38.3,37.6s38.3-16.8,38.3-37.6c0-20.8-17.1-37.6-38.3-37.6
	S501.9,137.9,501.9,158.6"/>
<line class="st0" x1="541.4" y1="118.2" x2="541.4" y2="91.2"/>
<line class="st0" x1="563.9" y1="91.2" x2="514.4" y2="91.2"/>
<line class="st0" x1="577.4" y1="91.2" x2="500.9" y2="91.2"/>
<line class="st0" x1="564.7" y1="81" x2="515.2" y2="81"/>
<line class="st0" x1="555.7" y1="69.8" x2="528.7" y2="69.8"/>
<g>
	<g>
		<line class="st5" x1="541.4" y1="180.8" x2="541.4" y2="131.7"/>
		<g>
			<path d="M560.9,153.1c-0.9-0.6-2.2-0.3-2.8,0.6l-16.6,26.1l-16.6-26.1c-0.6-0.9-1.9-1.2-2.8-0.6c-0.9,0.6-1.2,1.9-0.6,2.8
				l18.4,28.8c0.4,0.6,1,0.9,1.7,0.9s1.3-0.4,1.7-0.9l18.4-28.8c0.2-0.3,0.3-0.7,0.3-1.1C561.8,154.2,561.5,153.5,560.9,153.1z"/>
		</g>
	</g>
</g>
<text transform="matrix(1.0187 0 0 1 452.0898 174.8716)"><tspan x="0" y="0" class="st2 st6">V</tspan><tspan x="22.3" y="0" class="st2 st6">+</tspan></text>
<path class="st0" d="M504.7,865.7c0-20.8,17.1-37.6,38.3-37.6l0,0c21.1,0,38.3,16.8,38.3,37.6l0,0c0,20.8-17.1,37.6-38.3,37.6l0,0
	C521.9,903.2,504.7,886.4,504.7,865.7L504.7,865.7z"/>
<path class="st0" d="M581.3,865.7c0-20.8-17.1-37.6-38.3-37.6s-38.3,16.8-38.3,37.6c0,20.8,17.1,37.6,38.3,37.6
	S581.3,886.4,581.3,865.7"/>
<line class="st0" x1="541.4" y1="905.7" x2="541.4" y2="932.7"/>
<line class="st0" x1="518.9" y1="932.7" x2="568.4" y2="932.7"/>
<line class="st0" x1="532.4" y1="946.2" x2="554.9" y2="946.2"/>
<line class="st0" x1="505.4" y1="932.7" x2="581.9" y2="932.7"/>
<line class="st0" x1="518.9" y1="946.2" x2="568.4" y2="946.2"/>
<line class="st0" x1="532.4" y1="959.7" x2="554.9" y2="959.7"/>
<g>
	<g>
		<line class="st5" x1="541.4" y1="887.3" x2="541.4" y2="842.7"/>
		<g>
			<path d="M560.9,859.6c-0.9-0.6-2.2-0.3-2.8,0.6l-16.6,26.1l-16.6-26.1c-0.6-0.9-1.9-1.2-2.8-0.6c-0.9,0.6-1.2,1.9-0.6,2.8
				l18.4,28.8c0.4,0.6,1,0.9,1.7,0.9s1.3-0.4,1.7-0.9l18.4-28.8c0.2-0.3,0.3-0.7,0.3-1.1C561.8,860.7,561.5,860,560.9,859.6z"/>
		</g>
	</g>
</g>
<text transform="matrix(1.0187 0 0 1 459.4639 875.7725)"><tspan x="0" y="0" class="st2 st6">V</tspan><tspan x="22.3" y="0" class="st2 st6">-</tspan></text>
<line class="st1" x1="359.2" y1="610.9" x2="359.2" y2="687.4"/>
<line class="st1" x1="377.2" y1="610.9" x2="377.2" y2="687.4"/>
<line class="st0" x1="161.9" y1="649.2" x2="361.4" y2="649.2"/>
<line class="st0" x1="379.4" y1="649.2" x2="415.4" y2="649.2"/>
<text transform="matrix(1.0187 0 0 1 291.5303 635.9458)"><tspan x="0" y="0" class="st2 st6">C</tspan><tspan x="24.3" y="0" class="st2 st6">2</tspan></text>
<line class="st1" x1="354.7" y1="336.4" x2="354.7" y2="412.9"/>
<line class="st1" x1="372.7" y1="336.4" x2="372.7" y2="412.9"/>
<line class="st0" x1="374.9" y1="374.7" x2="410.9" y2="374.7"/>
<text transform="matrix(1.0187 0 0 1 297.0332 361.8442)"><tspan x="0" y="0" class="st2 st6">C</tspan><tspan x="24.3" y="0" class="st2 st6">1</tspan></text>
<path class="st1" d="M453.7,304.9"/>
<path class="st1" d="M377.2,304.9"/>
<path class="st1" d="M453.7,286.9"/>
<path class="st1" d="M377.2,286.9"/>
<line class="st4" x1="416" y1="376" x2="416" y2="361"/>
<line class="st4" x1="415" y1="259" x2="415" y2="249"/>
<text transform="matrix(1.0187 0 0 1 334.3467 285.7036)" class="st2 st6">R1</text>
<line class="st4" x1="415" y1="248.7" x2="541.4" y2="248.7"/>
<line class="st4" x1="415.4" y1="653.7" x2="415.4" y2="665"/>
<line class="st4" x1="415.4" y1="765" x2="415.4" y2="779.7"/>
<line class="st4" x1="415.4" y1="779.7" x2="542" y2="779.7"/>
<circle class="st0" cx="415.4" cy="649.2" r="2.2"/>
<circle class="st0" cx="415.4" cy="374.7" r="2.2"/>
<text transform="matrix(1.0187 0 0 1 337.4111 765.6348)" class="st2 st6">R2</text>
<path class="st0" d="M124.1,709.5c0-20.8,17.1-37.6,38.3-37.6l0,0c21.1,0,38.2,16.8,38.2,37.6l0,0c0,20.8-17,37.6-38.2,37.6l0,0
	C141.2,747.1,124.1,730.3,124.1,709.5L124.1,709.5z"/>
<path class="st0" d="M200.5,709.5c0-20.8-17-37.6-38.2-37.6s-38.3,16.8-38.3,37.6c0,20.8,17.1,37.6,38.3,37.6
	S200.5,730.3,200.5,709.5"/>
<line class="st0" x1="162.3" y1="747.1" x2="162.3" y2="772.2"/>
<line class="st0" x1="136.8" y1="772.2" x2="187.9" y2="772.2"/>
<line class="st0" x1="149.6" y1="784.7" x2="175.1" y2="784.7"/>
<line class="st0" x1="124.1" y1="772.2" x2="200.5" y2="772.2"/>
<line class="st0" x1="136.8" y1="784.7" x2="187.9" y2="784.7"/>
<line class="st0" x1="149.6" y1="797.3" x2="175.1" y2="797.3"/>
<line class="st0" x1="136.8" y1="722.1" x2="149.6" y2="722.1"/>
<line class="st0" x1="149.6" y1="722.1" x2="149.6" y2="684.5"/>
<line class="st0" x1="149.6" y1="684.5" x2="175.1" y2="684.5"/>
<line class="st0" x1="175.1" y1="684.5" x2="175.1" y2="722.1"/>
<line class="st0" x1="175.1" y1="722.1" x2="187.9" y2="722.1"/>
<text transform="matrix(1.0187 0 0 1 209.0127 721.7002)"><tspan x="0" y="0" class="st2 st6">T</tspan><tspan x="20.3" y="0" class="st2 st6 st7">r</tspan><tspan x="30.4" y="0" class="st2 st6 st7">i</tspan><tspan x="36.5" y="0" class="st2 st6">g 2</tspan></text>
<line class="st8" x1="161.9" y1="649.2" x2="161.9" y2="669.4"/>
<line class="st0" x1="158" y1="373.8" x2="357.5" y2="373.8"/>
<path class="st0" d="M120.2,434.2c0-20.8,17.1-37.6,38.3-37.6l0,0c21.1,0,38.2,16.8,38.2,37.6l0,0c0,20.8-17,37.6-38.2,37.6l0,0
	C137.3,471.8,120.2,455,120.2,434.2L120.2,434.2z"/>
<path class="st0" d="M196.6,434.2c0-20.8-17-37.6-38.2-37.6s-38.3,16.8-38.3,37.6c0,20.8,17.1,37.6,38.3,37.6S196.6,455,196.6,434.2
	"/>
<line class="st0" x1="158.4" y1="471.8" x2="158.4" y2="496.9"/>
<line class="st0" x1="132.9" y1="496.9" x2="184" y2="496.9"/>
<line class="st0" x1="145.7" y1="509.4" x2="171.2" y2="509.4"/>
<line class="st0" x1="120.2" y1="496.9" x2="196.6" y2="496.9"/>
<line class="st0" x1="132.9" y1="509.4" x2="184" y2="509.4"/>
<line class="st0" x1="145.7" y1="521.9" x2="171.2" y2="521.9"/>
<line class="st0" x1="132.9" y1="446.8" x2="145.7" y2="446.8"/>
<line class="st0" x1="145.7" y1="446.8" x2="145.7" y2="409.2"/>
<line class="st0" x1="145.7" y1="409.2" x2="171.2" y2="409.2"/>
<line class="st0" x1="171.2" y1="409.2" x2="171.2" y2="446.8"/>
<line class="st0" x1="171.2" y1="446.8" x2="184" y2="446.8"/>
<text transform="matrix(1.0187 0 0 1 205.1104 446.3794)"><tspan x="0" y="0" class="st2 st6">T</tspan><tspan x="20.3" y="0" class="st2 st6 st7">r</tspan><tspan x="30.4" y="0" class="st2 st6 st7">i</tspan><tspan x="36.5" y="0" class="st2 st6">g 1</tspan></text>
<line class="st8" x1="158" y1="373.8" x2="158" y2="394.1"/>
<path class="st0" d="M706.1,528.7c0-7-5.7-12.5-12.8-12.5c-7.1,0-12.8,5.6-12.8,12.5l0,0"/>
<path class="st0" d="M731.7,528.7c0-7-5.7-12.5-12.8-12.5c-7.1,0-12.8,5.6-12.8,12.5l0,0"/>
<path class="st0" d="M757.2,528.7c0-7-5.8-12.5-12.8-12.5c-7.1,0-12.8,5.6-12.8,12.5l0,0"/>
<path class="st0" d="M782.7,528.7c0-7-5.8-12.5-12.8-12.5c-7.1,0-12.8,5.6-12.8,12.5l0,0"/>
<line class="st0" x1="795.5" y1="578.6" x2="846.4" y2="578.6"/>
<line class="st0" x1="795.5" y1="616.2" x2="846.4" y2="616.2"/>
<line class="st0" x1="846.4" y1="616.2" x2="820.9" y2="578.6"/>
<line class="st0" x1="820.9" y1="578.6" x2="795.5" y2="616.2"/>
<line class="st0" x1="820.9" y1="641.3" x2="820.9" y2="553.7"/>
<line class="st0" x1="795.5" y1="804.1" x2="846.4" y2="804.1"/>
<line class="st0" x1="795.5" y1="841.6" x2="846.4" y2="841.6"/>
<line class="st0" x1="846.4" y1="841.6" x2="820.9" y2="804.1"/>
<line class="st0" x1="820.9" y1="804.1" x2="795.5" y2="841.6"/>
<line class="st0" x1="820.9" y1="866.7" x2="820.9" y2="779"/>
<line class="st0" x1="820.9" y1="916.8" x2="820.9" y2="941.9"/>
<line class="st0" x1="795.5" y1="941.9" x2="846.4" y2="941.9"/>
<line class="st0" x1="808.1" y1="954.4" x2="833.6" y2="954.4"/>
<line class="st0" x1="782.7" y1="941.9" x2="859.2" y2="941.9"/>
<line class="st0" x1="795.5" y1="954.4" x2="846.4" y2="954.4"/>
<line class="st0" x1="808.1" y1="966.9" x2="833.6" y2="966.9"/>
<line class="st0" x1="820.9" y1="866.7" x2="820.9" y2="916.8"/>
<line class="st0" x1="820.9" y1="779" x2="820.9" y2="732.9"/>
<line class="st0" x1="820.9" y1="692.4" x2="820.9" y2="641.3"/>
<line class="st0" x1="795.5" y1="528.7" x2="820.9" y2="528.7"/>
<line class="st0" x1="820.9" y1="528.7" x2="820.9" y2="553.7"/>
<line class="st1" x1="884.7" y1="491.1" x2="884.7" y2="566.2"/>
<line class="st1" x1="897.5" y1="491.1" x2="897.5" y2="566.2"/>
<line class="st0" x1="820.9" y1="528.7" x2="884.7" y2="528.7"/>
<line class="st0" x1="897.5" y1="528.7" x2="961.3" y2="528.7"/>
<line class="st0" x1="961.3" y1="528.7" x2="961.3" y2="628.8"/>
<line class="st0" x1="986.8" y1="628.8" x2="935.8" y2="628.8"/>
<line class="st0" x1="935.8" y1="628.8" x2="935.8" y2="729"/>
<line class="st0" x1="935.8" y1="729" x2="986.8" y2="729"/>
<line class="st0" x1="986.8" y1="729" x2="986.8" y2="628.8"/>
<line class="st0" x1="961.3" y1="916.8" x2="961.3" y2="941.9"/>
<line class="st0" x1="935.8" y1="941.9" x2="986.8" y2="941.9"/>
<line class="st0" x1="948.5" y1="954.4" x2="974.1" y2="954.4"/>
<line class="st0" x1="923" y1="941.9" x2="999.6" y2="941.9"/>
<line class="st0" x1="935.8" y1="954.4" x2="986.8" y2="954.4"/>
<line class="st0" x1="948.5" y1="966.9" x2="974.1" y2="966.9"/>
<line class="st0" x1="961.3" y1="729" x2="961.3" y2="916.8"/>
<text transform="matrix(1.0187 0 0 1 697.2441 616.0093)"><tspan x="0" y="0" class="st2 st6">S</tspan><tspan x="22.3" y="0" class="st2 st6">RD</tspan><tspan x="70.9" y="0" class="st2 st6">1</tspan></text>
<text transform="matrix(1.0187 0 0 1 697.2441 840.7637)"><tspan x="0" y="0" class="st2 st6">S</tspan><tspan x="22.3" y="0" class="st2 st6">RD</tspan></text>
<text transform="matrix(0 -0.9816 1 0 971.9902 723.3066)" class="st2 st9">R</text>
<text transform="matrix(0 -0.9816 1 0 971.9902 703.0566)" class="st2 st9">_</text>
<text transform="matrix(0 -0.9816 1 0 971.9902 686.814)" class="st2 st9">l</text>
<text transform="matrix(0 -0.9816 1 0 971.9902 680.7671)" class="st2 st9">o</text>
<text transform="matrix(0 -0.9816 1 0 971.9902 664.5601)" class="st2 st9">a</text>
<text transform="matrix(0 -0.9816 1 0 971.9902 648.3882)" class="st2 st9">d</text>
<text transform="matrix(1.0187 0 0 1 722.3809 502.5601)" class="st2 st6">L</text>
<line class="st0" x1="795.5" y1="528.7" x2="782.7" y2="528.7"/>
<line class="st0" x1="680.6" y1="528.7" x2="667.8" y2="528.7"/>
<text transform="matrix(1 0 0 1 767.9209 850.3193)" class="st10 st11">n</text>
<text transform="matrix(1 8.760001e-03 -8.760001e-03 1 794.384 716.2744)" class="st10 st12">...</text>
<line class="st0" x1="543.3" y1="528.8" x2="678.3" y2="528.8"/>
<circle class="st0" cx="542.2" cy="528.8" r="2.2"/>
<text transform="matrix(1.0187 0 0 1 916.2295 503.2671)"><tspan x="0" y="0" class="st2 st6">C</tspan><tspan x="24.3" y="0" class="st2 st6">5</tspan></text>
<line class="st0" x1="440.1" y1="258.9" x2="389" y2="258.9"/>
<line class="st0" x1="389" y1="258.9" x2="389" y2="359.1"/>
<line class="st0" x1="389" y1="359.1" x2="440.1" y2="359.1"/>
<line class="st0" x1="440.1" y1="359.1" x2="440.1" y2="258.9"/>
<line class="st0" x1="441.4" y1="664.8" x2="390.3" y2="664.8"/>
<line class="st0" x1="390.3" y1="664.8" x2="390.3" y2="765.1"/>
<line class="st0" x1="390.3" y1="765.1" x2="441.4" y2="765.1"/>
<line class="st0" x1="441.4" y1="765.1" x2="441.4" y2="664.8"/>
</svg>
